<svg width="524" height="109" viewBox="0 0 524 109" fill="none" xmlns="http://www.w3.org/2000/svg">
<path d="M140.422 79.415C136.089 79.415 132.853 78.2331 130.714 75.8693C128.632 73.5055 127.591 69.8754 127.591 64.979V42.1011H121.09L121.259 34.5877H125.48C126.943 34.5877 128.041 34.3625 128.772 33.9123C129.504 33.4058 129.954 32.5334 130.123 31.2953L130.967 24.7949H136.455V34.5877H148.527V42.2699H136.455V64.7258C136.455 66.9207 136.961 68.4966 137.974 69.4533C138.987 70.4101 140.479 70.8885 142.449 70.8885C143.518 70.8885 144.587 70.7759 145.656 70.5508C146.782 70.2694 147.851 69.7629 148.864 69.0312V77.8954C147.176 78.4582 145.628 78.8522 144.221 79.0773C142.814 79.3024 141.548 79.415 140.422 79.415ZM157.972 78.4863V55.6084V34.5877H165.908L165.485 49.7834H166.921C167.427 46.3503 168.215 43.4237 169.284 41.0036C170.354 38.5836 171.817 36.7545 173.674 35.5163C175.531 34.2218 177.839 33.5746 180.597 33.5746C181.159 33.5746 181.779 33.6028 182.454 33.659C183.129 33.7153 183.889 33.8842 184.733 34.1656L184.311 43.7895C183.467 43.4518 182.595 43.2267 181.694 43.1141C180.794 42.9453 179.978 42.8609 179.246 42.8609C176.995 42.8609 175.081 43.5081 173.505 44.8025C171.93 46.0407 170.607 47.7854 169.538 50.0366C168.525 52.2316 167.737 54.7923 167.174 57.7189V78.4863H157.972ZM202.151 79.5838C199.731 79.5838 197.564 79.1336 195.651 78.2331C193.737 77.2763 192.217 75.8693 191.092 74.012C190.023 72.1548 189.488 69.8473 189.488 67.0896C189.488 64.8946 189.882 63.0092 190.67 61.4334C191.514 59.8013 192.752 58.4505 194.384 57.3812C196.073 56.2556 198.211 55.3551 200.8 54.6797C203.389 53.9481 206.456 53.329 210.002 52.8225C211.972 52.5411 213.576 52.2597 214.814 51.9783C216.108 51.6969 217.037 51.2466 217.6 50.6276C218.219 50.0085 218.529 49.0799 218.529 47.8417C218.529 45.9282 217.853 44.296 216.502 42.9453C215.208 41.5383 213.097 40.8348 210.171 40.8348C208.539 40.8348 206.907 41.1162 205.275 41.679C203.699 42.2418 202.32 43.1704 201.138 44.4649C200.012 45.703 199.253 47.3914 198.859 49.5301L190.585 46.9131C191.092 44.7744 191.908 42.889 193.034 41.2569C194.159 39.5685 195.566 38.1615 197.255 37.0359C198.943 35.854 200.885 34.9816 203.08 34.4188C205.331 33.7997 207.779 33.4902 210.424 33.4902C214.307 33.4902 217.515 34.1374 220.048 35.4319C222.581 36.7263 224.466 38.7243 225.704 41.4257C226.999 44.0709 227.646 47.4759 227.646 51.6406V60.5892C227.646 62.4464 227.674 64.4162 227.73 66.4986C227.843 68.5247 227.955 70.5789 228.068 72.6613C228.237 74.6874 228.434 76.6291 228.659 78.4863H220.301C220.133 76.7979 219.964 75.0532 219.795 73.2523C219.682 71.4513 219.57 69.6222 219.457 67.7649H218.191C217.403 69.9036 216.277 71.8734 214.814 73.6744C213.407 75.4753 211.634 76.9105 209.496 77.9798C207.413 79.0491 204.965 79.5838 202.151 79.5838ZM205.359 72.4925C206.541 72.4925 207.723 72.2955 208.905 71.9015C210.143 71.5076 211.353 70.9166 212.535 70.1287C213.773 69.2845 214.898 68.2152 215.911 66.9207C216.981 65.6263 217.909 64.0786 218.697 62.2776L218.613 54.3421L220.808 54.7642C219.851 55.6084 218.641 56.2556 217.178 56.7058C215.771 57.1561 214.223 57.5219 212.535 57.8033C210.846 58.0284 209.158 58.3098 207.469 58.6475C205.837 58.9289 204.318 59.351 202.911 59.9138C201.56 60.4203 200.463 61.152 199.618 62.1088C198.83 63.0655 198.436 64.3881 198.436 66.0765C198.436 68.1589 199.084 69.7629 200.378 70.8885C201.673 71.9578 203.333 72.4925 205.359 72.4925ZM239.919 78.4863V34.5877H249.037V78.4863H239.919ZM244.478 27.2431C242.508 27.2431 241.017 26.8491 240.004 26.0612C238.991 25.217 238.484 23.9788 238.484 22.3467C238.484 20.7708 238.991 19.5608 240.004 18.7166C241.017 17.8724 242.508 17.4503 244.478 17.4503C246.504 17.4503 248.024 17.8724 249.037 18.7166C250.05 19.5608 250.556 20.7708 250.556 22.3467C250.556 23.9788 250.05 25.217 249.037 26.0612C248.024 26.8491 246.504 27.2431 244.478 27.2431ZM261.766 78.4863V18.9699H270.799V78.4863H261.766ZM307.424 79.5838C304.61 79.5838 302.19 79.021 300.164 77.8954C298.194 76.7698 296.59 75.2221 295.352 73.2523C294.114 71.2824 293.185 68.975 292.566 66.3298H291.131L291.384 78.4863H283.449V56.8747V18.9699H292.65V32.8993C292.65 34.3063 292.566 35.8258 292.397 37.458C292.228 39.0338 292.003 40.6659 291.722 42.3544C291.497 43.9865 291.243 45.6186 290.962 47.2507H292.566C293.241 44.7181 294.17 42.4388 295.352 40.4127C296.59 38.3303 298.194 36.67 300.164 35.4319C302.134 34.1937 304.582 33.5746 307.508 33.5746C311.167 33.5746 314.318 34.5595 316.963 36.5293C319.609 38.4429 321.635 41.1443 323.042 44.6337C324.505 48.0668 325.237 52.0909 325.237 56.7058C325.237 61.2083 324.533 65.176 323.126 68.6091C321.775 72.0422 319.777 74.7437 317.132 76.7135C314.487 78.627 311.251 79.5838 307.424 79.5838ZM304.807 71.8171C307.058 71.8171 309 71.198 310.632 69.9599C312.264 68.7217 313.502 66.977 314.346 64.7258C315.247 62.4183 315.697 59.745 315.697 56.7058C315.697 53.723 315.275 51.0778 314.431 48.7703C313.587 46.4628 312.348 44.6618 310.716 43.3674C309.141 42.0167 307.199 41.3413 304.891 41.3413C303.259 41.3413 301.768 41.679 300.417 42.3544C299.123 42.9734 297.969 43.8176 296.956 44.887C295.999 45.9563 295.183 47.1382 294.508 48.4326C293.889 49.7271 293.41 51.0497 293.072 52.4004C292.735 53.7511 292.566 54.9893 292.566 56.1149V57.2968C292.566 58.8164 292.819 60.4485 293.326 62.1932C293.889 63.8816 294.676 65.4574 295.69 66.9207C296.759 68.384 298.053 69.5659 299.573 70.4664C301.092 71.3669 302.837 71.8171 304.807 71.8171ZM335.634 78.4863V18.9699H344.667V78.4863H335.634ZM367.447 79.5838C365.027 79.5838 362.86 79.1336 360.947 78.2331C359.033 77.2763 357.513 75.8693 356.388 74.012C355.319 72.1548 354.784 69.8473 354.784 67.0896C354.784 64.8946 355.178 63.0092 355.966 61.4334C356.81 59.8013 358.048 58.4505 359.68 57.3812C361.369 56.2556 363.507 55.3551 366.096 54.6797C368.685 53.9481 371.752 53.329 375.298 52.8225C377.268 52.5411 378.872 52.2597 380.11 51.9783C381.404 51.6969 382.333 51.2466 382.896 50.6276C383.515 50.0085 383.825 49.0799 383.825 47.8417C383.825 45.9282 383.149 44.296 381.798 42.9453C380.504 41.5383 378.393 40.8348 375.467 40.8348C373.835 40.8348 372.203 41.1162 370.57 41.679C368.995 42.2418 367.616 43.1704 366.434 44.4649C365.308 45.703 364.548 47.3914 364.155 49.5301L355.881 46.9131C356.388 44.7744 357.204 42.889 358.33 41.2569C359.455 39.5685 360.862 38.1615 362.551 37.0359C364.239 35.854 366.181 34.9816 368.376 34.4188C370.627 33.7997 373.075 33.4902 375.72 33.4902C379.603 33.4902 382.811 34.1374 385.344 35.4319C387.877 36.7263 389.762 38.7243 391 41.4257C392.295 44.0709 392.942 47.4759 392.942 51.6406V60.5892C392.942 62.4464 392.97 64.4162 393.026 66.4986C393.139 68.5247 393.251 70.5789 393.364 72.6613C393.533 74.6874 393.73 76.6291 393.955 78.4863H385.597C385.429 76.7979 385.26 75.0532 385.091 73.2523C384.978 71.4513 384.866 69.6222 384.753 67.7649H383.487C382.699 69.9036 381.573 71.8734 380.11 73.6744C378.703 75.4753 376.93 76.9105 374.792 77.9798C372.709 79.0491 370.261 79.5838 367.447 79.5838ZM370.655 72.4925C371.837 72.4925 373.019 72.2955 374.201 71.9015C375.439 71.5076 376.649 70.9166 377.831 70.1287C379.069 69.2845 380.194 68.2152 381.207 66.9207C382.277 65.6263 383.205 64.0786 383.993 62.2776L383.909 54.3421L386.104 54.7642C385.147 55.6084 383.937 56.2556 382.474 56.7058C381.067 57.1561 379.519 57.5219 377.831 57.8033C376.142 58.0284 374.454 58.3098 372.765 58.6475C371.133 58.9289 369.614 59.351 368.207 59.9138C366.856 60.4203 365.759 61.152 364.914 62.1088C364.126 63.0655 363.732 64.3881 363.732 66.0765C363.732 68.1589 364.38 69.7629 365.674 70.8885C366.969 71.9578 368.629 72.4925 370.655 72.4925ZM401.921 78.4863V70.4664L426.065 43.283V42.1855H402.259V34.5877H438.053V42.3544L413.486 69.7066V70.8041H438.222V78.4863H401.921ZM466.263 79.5838C462.774 79.5838 459.678 79.0773 456.977 78.0642C454.275 76.9949 451.996 75.5035 450.139 73.5899C448.282 71.6201 446.875 69.2845 445.918 66.583C444.961 63.8253 444.483 60.7299 444.483 57.2968C444.483 53.8637 444.961 50.712 445.918 47.8417C446.875 44.9151 448.225 42.3825 449.97 40.2438C451.771 38.1052 453.966 36.4449 456.555 35.263C459.2 34.0811 462.183 33.4902 465.503 33.4902C468.599 33.4902 471.356 33.9967 473.777 35.0098C476.253 36.0228 478.335 37.5705 480.024 39.6529C481.712 41.679 482.978 44.2397 483.823 47.3352C484.667 50.3743 484.976 53.9481 484.751 58.0566L450.392 58.3098V52.5692L479.348 52.316L476.14 55.8616C476.478 52.4848 476.197 49.6989 475.296 47.504C474.396 45.3091 473.101 43.6769 471.413 42.6076C469.724 41.5383 467.783 41.0036 465.588 41.0036C463.111 41.0036 460.945 41.6508 459.087 42.9453C457.286 44.1835 455.879 46.0126 454.866 48.4326C453.853 50.8527 453.347 53.7511 453.347 57.1279C453.347 62.1932 454.472 66.0202 456.724 68.6091C458.975 71.1417 462.183 72.4081 466.348 72.4081C468.092 72.4081 469.584 72.2111 470.822 71.8171C472.06 71.3669 473.101 70.8041 473.945 70.1287C474.79 69.3971 475.465 68.5528 475.971 67.5961C476.534 66.583 476.985 65.5419 477.322 64.4725L485.342 66.3298C484.836 68.4121 484.048 70.2694 482.978 71.9015C481.965 73.4774 480.671 74.8562 479.095 76.0381C477.519 77.1637 475.662 78.0361 473.523 78.6552C471.441 79.2743 469.021 79.5838 466.263 79.5838ZM495.077 78.4863V55.6084V34.5877H503.012L502.59 49.7834H504.025C504.532 46.3503 505.32 43.4237 506.389 41.0036C507.459 38.5836 508.922 36.7545 510.779 35.5163C512.636 34.2218 514.944 33.5746 517.702 33.5746C518.264 33.5746 518.883 33.6028 519.559 33.659C520.234 33.7153 520.994 33.8842 521.838 34.1656L521.416 43.7895C520.572 43.4518 519.7 43.2267 518.799 43.1141C517.899 42.9453 517.082 42.8609 516.351 42.8609C514.1 42.8609 512.186 43.5081 510.61 44.8025C509.034 46.0407 507.712 47.7854 506.642 50.0366C505.629 52.2316 504.842 54.7923 504.279 57.7189V78.4863H495.077Z" fill="white"/>
<path fill-rule="evenodd" clip-rule="evenodd" d="M105.108 29.1688C105.108 15.2776 93.8316 4 79.9402 4H27.474C13.583 4 2.30518 15.2776 2.30518 29.1688V81.634C2.30518 95.5254 13.583 106.804 27.474 106.804H79.9402C93.8316 106.804 105.108 95.5254 105.108 81.634V29.1688Z" stroke="white" stroke-width="4" stroke-miterlimit="1.5" stroke-linecap="round" stroke-linejoin="round"/>
<path d="M48.5448 86.1723C42.4878 86.1723 37.9614 84.6418 34.9655 81.5807C32.0347 78.4546 30.5693 73.635 30.5693 67.1222V45.7274H24.9031V35.7627H25.1962C29.2341 35.2417 32.0998 33.9065 33.7931 31.7573C35.4865 29.5429 36.5286 26.2213 36.9193 21.7926V21.5972H46.2002V33.4181H58.021V46.1182H46.2002V65.6568C46.2002 68.1317 46.7863 69.8901 47.9586 70.9322C49.1961 71.9743 50.694 72.4953 52.4525 72.4953C53.3643 72.4953 54.3087 72.365 55.2856 72.1045C56.2626 71.844 57.1744 71.4858 58.021 71.0299V84.8046C56.002 85.3908 54.211 85.749 52.6479 85.8792C51.0848 86.0746 49.7171 86.1723 48.5448 86.1723Z" fill="white"/>
<path fill-rule="evenodd" clip-rule="evenodd" d="M67.7354 89.1996L82.5122 55.0491L49.7704 66.46L67.7356 69.2422L67.7354 89.1996Z" fill="white"/>
</svg>
