<svg width="214" height="43" viewBox="0 0 214 43" fill="none" xmlns="http://www.w3.org/2000/svg">
<path fill-rule="evenodd" clip-rule="evenodd" d="M42 11.0377C42 5.4977 37.5026 1 31.9624 1H11.0378C5.49783 1 1 5.4977 1 11.0377V31.9617C1 37.5018 5.49783 42 11.0378 42H31.9624C37.5026 42 42 37.5018 42 31.9617V11.0377Z" stroke="#232323" stroke-width="2" stroke-miterlimit="1.5" stroke-linecap="round" stroke-linejoin="round"/>
<path d="M19.4388 33.7909C17.0206 33.7909 15.2134 33.1796 14.0173 31.9571C12.8472 30.7085 12.2622 28.7836 12.2622 26.1824V17.6375H10V13.6576H10.117C11.7291 13.4495 12.8732 12.9163 13.5493 12.0579C14.2253 11.1735 14.6414 9.84685 14.7974 8.07804V8H18.5027V12.7212H23.2221V17.7935H18.5027V25.5971C18.5027 26.5856 18.7367 27.2879 19.2048 27.7041C19.6988 28.1203 20.2969 28.3284 20.9989 28.3284C21.3629 28.3284 21.74 28.2764 22.13 28.1723C22.52 28.0683 22.8841 27.9252 23.2221 27.7431V33.2447C22.416 33.4788 21.701 33.6218 21.0769 33.6739C20.4529 33.7519 19.9068 33.7909 19.4388 33.7909Z" fill="#232323"/>
<path fill-rule="evenodd" clip-rule="evenodd" d="M27.1005 35L33 21.3605L19.9281 25.918L27.1006 27.0291L27.1005 35Z" fill="#232323"/>
<path d="M65.6695 34.9239C63.7262 34.9239 62.2749 34.3913 61.3158 33.3261C60.382 32.2609 59.9151 30.625 59.9151 28.4185V18.1087H57L57.0757 14.7228H58.9686C59.6248 14.7228 60.117 14.6214 60.4451 14.4185C60.7732 14.1902 60.9751 13.7971 61.0508 13.2391L61.4294 10.3098H63.8902V14.7228H69.3039V18.1848H63.8902V28.3043C63.8902 29.2935 64.1174 30.0036 64.5717 30.4348C65.026 30.8659 65.6948 31.0815 66.5781 31.0815C67.0577 31.0815 67.5372 31.0308 68.0168 30.9293C68.5215 30.8025 69.0011 30.5743 69.4554 30.2446V34.2391C68.6982 34.4928 68.0041 34.6703 67.3732 34.7717C66.7422 34.8732 66.1743 34.9239 65.6695 34.9239Z" fill="#232323"/>
<path d="M71.2681 34.5054V14.7228H74.8268L74.6375 21.5707H75.2811C75.5083 20.0236 75.8616 18.7047 76.3411 17.6141C76.8207 16.5236 77.4769 15.6993 78.3098 15.1413C79.1426 14.558 80.1774 14.2663 81.4141 14.2663C81.6665 14.2663 81.9442 14.279 82.247 14.3043C82.5499 14.3297 82.8906 14.4058 83.2692 14.5326L83.0799 18.8696C82.7013 18.7174 82.3101 18.6159 81.9063 18.5652C81.5025 18.4891 81.1365 18.4511 80.8084 18.4511C79.7989 18.4511 78.9407 18.7428 78.234 19.3261C77.5274 19.8841 76.9342 20.6703 76.4547 21.6848C76.0004 22.6739 75.6471 23.8279 75.3947 25.1467V34.5054H71.2681Z" fill="#232323"/>
<path d="M88.8086 35C87.7234 35 86.7517 34.7971 85.8935 34.3913C85.0354 33.9601 84.354 33.3261 83.8492 32.4891C83.3697 31.6522 83.1299 30.6123 83.1299 29.3696C83.1299 28.3804 83.3066 27.5308 83.6599 26.8207C84.0385 26.0851 84.5937 25.4765 85.3257 24.9946C86.0828 24.4873 87.0419 24.0815 88.2029 23.7772C89.3639 23.4475 90.7394 23.1685 92.3294 22.9402C93.2128 22.8134 93.9321 22.6866 94.4874 22.5598C95.0679 22.433 95.4843 22.2301 95.7367 21.9511C96.0143 21.6721 96.1531 21.2536 96.1531 20.6957C96.1531 19.8333 95.8503 19.0978 95.2445 18.4891C94.664 17.8551 93.7176 17.538 92.4052 17.538C91.6732 17.538 90.9413 17.6649 90.2094 17.9185C89.5027 18.1721 88.8843 18.5906 88.3543 19.1739C87.8496 19.7319 87.5088 20.4928 87.3322 21.4565L83.622 20.2772C83.8492 19.3134 84.2152 18.4638 84.7199 17.7283C85.2247 16.9674 85.8557 16.3333 86.6129 15.8261C87.37 15.2935 88.2408 14.9004 89.2251 14.6467C90.2346 14.3678 91.3325 14.2283 92.5187 14.2283C94.2602 14.2283 95.6988 14.5199 96.8346 15.1033C97.9703 15.6866 98.8158 16.587 99.3711 17.8043C99.9516 18.9964 100.242 20.5308 100.242 22.4076V26.4402C100.242 27.2772 100.254 28.1649 100.28 29.1033C100.33 30.0163 100.381 30.942 100.431 31.8804C100.507 32.7935 100.595 33.6685 100.696 34.5054H96.9482C96.8724 33.7446 96.7967 32.9583 96.721 32.1467C96.6705 31.3351 96.6201 30.5109 96.5696 29.6739H96.0017C95.6484 30.6377 95.1436 31.5254 94.4874 32.337C93.8564 33.1486 93.0614 33.7953 92.1023 34.2772C91.1685 34.7591 90.0706 35 88.8086 35ZM90.2472 31.8043C90.7773 31.8043 91.3073 31.7156 91.8373 31.538C92.3925 31.3605 92.9352 31.0942 93.4652 30.7391C94.0204 30.3587 94.5252 29.8768 94.9795 29.2935C95.4591 28.7101 95.8755 28.0127 96.2289 27.2011L96.191 23.625L97.1753 23.8152C96.7462 24.1957 96.2036 24.4873 95.5474 24.6902C94.9164 24.8931 94.2224 25.058 93.4652 25.1848C92.708 25.2862 91.9509 25.413 91.1937 25.5652C90.4618 25.692 89.7803 25.8822 89.1494 26.1359C88.5436 26.3641 88.0515 26.6938 87.6729 27.125C87.3195 27.5562 87.1429 28.1522 87.1429 28.913C87.1429 29.8514 87.4331 30.5743 88.0136 31.0815C88.5941 31.5634 89.3386 31.8043 90.2472 31.8043Z" fill="#232323"/>
<path d="M103.474 34.5054V14.7228H107.563V34.5054H103.474ZM105.519 11.413C104.635 11.413 103.966 11.2355 103.512 10.8804C103.058 10.5 102.831 9.94203 102.831 9.20652C102.831 8.49638 103.058 7.95109 103.512 7.57065C103.966 7.19022 104.635 7 105.519 7C106.427 7 107.109 7.19022 107.563 7.57065C108.017 7.95109 108.244 8.49638 108.244 9.20652C108.244 9.94203 108.017 10.5 107.563 10.8804C107.109 11.2355 106.427 11.413 105.519 11.413Z" fill="#232323"/>
<path d="M111 34.5054V7.68478H115.051V34.5054H111Z" fill="#232323"/>
<path d="M129.204 35C127.942 35 126.856 34.7464 125.948 34.2391C125.065 33.7319 124.345 33.0344 123.79 32.1467C123.235 31.2591 122.818 30.2192 122.541 29.0272H121.897L122.011 34.5054H118.452V7.68478H122.578V13.962C122.578 14.596 122.541 15.2808 122.465 16.0163C122.389 16.7264 122.288 17.462 122.162 18.2228C122.061 18.9583 121.948 19.6938 121.821 20.4293H122.541C122.844 19.288 123.26 18.2609 123.79 17.3478C124.345 16.4094 125.065 15.6612 125.948 15.1033C126.831 14.5453 127.929 14.2663 129.242 14.2663C130.882 14.2663 132.295 14.7101 133.482 15.5978C134.668 16.4601 135.577 17.6775 136.207 19.25C136.864 20.7971 137.192 22.6105 137.192 24.6902C137.192 26.7192 136.876 28.5072 136.245 30.0543C135.64 31.6015 134.744 32.8188 133.557 33.7065C132.371 34.5688 130.92 35 129.204 35ZM128.03 31.5C129.04 31.5 129.91 31.221 130.642 30.663C131.374 30.1051 131.929 29.3188 132.308 28.3043C132.712 27.2645 132.914 26.0598 132.914 24.6902C132.914 23.346 132.725 22.154 132.346 21.1141C131.967 20.0743 131.412 19.2627 130.68 18.6793C129.973 18.0707 129.103 17.7663 128.068 17.7663C127.336 17.7663 126.667 17.9185 126.061 18.2228C125.481 18.5018 124.964 18.8822 124.509 19.3641C124.08 19.846 123.714 20.3786 123.411 20.962C123.134 21.5453 122.919 22.1413 122.768 22.75C122.616 23.3587 122.541 23.9167 122.541 24.4239V24.9565C122.541 25.6413 122.654 26.3768 122.881 27.163C123.134 27.9239 123.487 28.6341 123.941 29.2935C124.421 29.9529 125.001 30.4855 125.683 30.8913C126.364 31.2971 127.147 31.5 128.03 31.5Z" fill="#232323"/>
<path d="M139.583 34.5054V7.68478H143.634V34.5054H139.583Z" fill="#232323"/>
<path d="M151.578 35C150.493 35 149.521 34.7971 148.663 34.3913C147.805 33.9601 147.123 33.3261 146.618 32.4891C146.139 31.6522 145.899 30.6123 145.899 29.3696C145.899 28.3804 146.076 27.5308 146.429 26.8207C146.808 26.0851 147.363 25.4765 148.095 24.9946C148.852 24.4873 149.811 24.0815 150.972 23.7772C152.133 23.4475 153.509 23.1685 155.099 22.9402C155.982 22.8134 156.701 22.6866 157.257 22.5598C157.837 22.433 158.254 22.2301 158.506 21.9511C158.784 21.6721 158.922 21.2536 158.922 20.6957C158.922 19.8333 158.62 19.0978 158.014 18.4891C157.433 17.8551 156.487 17.538 155.174 17.538C154.443 17.538 153.711 17.6649 152.979 17.9185C152.272 18.1721 151.654 18.5906 151.124 19.1739C150.619 19.7319 150.278 20.4928 150.101 21.4565L146.391 20.2772C146.618 19.3134 146.984 18.4638 147.489 17.7283C147.994 16.9674 148.625 16.3333 149.382 15.8261C150.139 15.2935 151.01 14.9004 151.994 14.6467C153.004 14.3678 154.102 14.2283 155.288 14.2283C157.03 14.2283 158.468 14.5199 159.604 15.1033C160.74 15.6866 161.585 16.587 162.14 17.8043C162.721 18.9964 163.011 20.5308 163.011 22.4076V26.4402C163.011 27.2772 163.024 28.1649 163.049 29.1033C163.099 30.0163 163.15 30.942 163.2 31.8804C163.276 32.7935 163.364 33.6685 163.465 34.5054H159.717C159.642 33.7446 159.566 32.9583 159.49 32.1467C159.44 31.3351 159.389 30.5109 159.339 29.6739H158.771C158.418 30.6377 157.913 31.5254 157.257 32.337C156.626 33.1486 155.831 33.7953 154.872 34.2772C153.938 34.7591 152.84 35 151.578 35ZM153.017 31.8043C153.547 31.8043 154.077 31.7156 154.607 31.538C155.162 31.3605 155.704 31.0942 156.234 30.7391C156.79 30.3587 157.295 29.8768 157.749 29.2935C158.228 28.7101 158.645 28.0127 158.998 27.2011L158.96 23.625L159.945 23.8152C159.516 24.1957 158.973 24.4873 158.317 24.6902C157.686 24.8931 156.992 25.058 156.234 25.1848C155.477 25.2862 154.72 25.413 153.963 25.5652C153.231 25.692 152.55 25.8822 151.919 26.1359C151.313 26.3641 150.821 26.6938 150.442 27.125C150.089 27.5562 149.912 28.1522 149.912 28.913C149.912 29.8514 150.202 30.5743 150.783 31.0815C151.363 31.5634 152.108 31.8043 153.017 31.8043Z" fill="#232323"/>
<path d="M164.766 34.5054V30.8913L175.594 18.6413V18.1467H164.918V14.7228H180.97V18.2228L169.953 30.5489V31.0435H181.045V34.5054H164.766Z" fill="#232323"/>
<path d="M191.349 35C189.784 35 188.396 34.7717 187.184 34.3152C185.973 33.8333 184.951 33.1612 184.118 32.2989C183.285 31.4112 182.654 30.3587 182.225 29.1413C181.796 27.8986 181.581 26.5036 181.581 24.9565C181.581 23.4094 181.796 21.9891 182.225 20.6957C182.654 19.3768 183.26 18.2355 184.042 17.2717C184.85 16.308 185.834 15.5598 186.995 15.0272C188.181 14.4946 189.519 14.2283 191.008 14.2283C192.396 14.2283 193.633 14.4565 194.718 14.913C195.829 15.3696 196.763 16.067 197.52 17.0054C198.277 17.9185 198.845 19.0725 199.223 20.4674C199.602 21.837 199.741 23.4475 199.64 25.2989L184.232 25.413V22.8261L197.217 22.712L195.778 24.3098C195.93 22.788 195.804 21.5326 195.4 20.5435C194.996 19.5543 194.415 18.8188 193.658 18.337C192.901 17.8551 192.03 17.6141 191.046 17.6141C189.936 17.6141 188.964 17.9058 188.131 18.4891C187.323 19.0471 186.692 19.8714 186.238 20.962C185.784 22.0525 185.557 23.3587 185.557 24.8804C185.557 27.163 186.061 28.8877 187.071 30.0543C188.08 31.1957 189.519 31.7663 191.387 31.7663C192.169 31.7663 192.838 31.6775 193.393 31.5C193.949 31.2971 194.415 31.0435 194.794 30.7391C195.173 30.4094 195.475 30.029 195.703 29.5978C195.955 29.1413 196.157 28.6721 196.308 28.1902L199.905 29.0272C199.678 29.9656 199.324 30.8025 198.845 31.538C198.391 32.2482 197.81 32.8696 197.103 33.4022C196.397 33.9094 195.564 34.3025 194.605 34.5815C193.671 34.8605 192.586 35 191.349 35Z" fill="#232323"/>
<path d="M201.999 34.5054V14.7228H205.558L205.368 21.5707H206.012C206.239 20.0236 206.592 18.7047 207.072 17.6141C207.551 16.5236 208.208 15.6993 209.041 15.1413C209.873 14.558 210.908 14.2663 212.145 14.2663C212.397 14.2663 212.675 14.279 212.978 14.3043C213.281 14.3297 213.621 14.4058 214 14.5326L213.811 18.8696C213.432 18.7174 213.041 18.6159 212.637 18.5652C212.233 18.4891 211.867 18.4511 211.539 18.4511C210.53 18.4511 209.672 18.7428 208.965 19.3261C208.258 19.8841 207.665 20.6703 207.186 21.6848C206.731 22.6739 206.378 23.8279 206.125 25.1467V34.5054H201.999Z" fill="#232323"/>
</svg>
